<mxfile host="app.diagrams.net" agent="Mozilla/5.0 (Windows NT 10.0; Win64; x64) AppleWebKit/537.36 (KHTML, like Gecko) Chrome/134.0.0.0 Safari/537.36 Edg/134.0.0.0" version="26.1.0">
  <diagram name="Página-1" id="tuImqCsNB6lrNrwBQIJA">
    <mxGraphModel dx="2194" dy="1202" grid="1" gridSize="10" guides="1" tooltips="1" connect="1" arrows="1" fold="1" page="1" pageScale="1" pageWidth="1169" pageHeight="827" math="0" shadow="0">
      <root>
        <mxCell id="0" />
        <mxCell id="1" parent="0" />
        <mxCell id="uRD_3BtpNxTeI_Oz4r6Z-55" style="edgeStyle=orthogonalEdgeStyle;rounded=0;orthogonalLoop=1;jettySize=auto;html=1;startArrow=block;startFill=1;endArrow=block;endFill=1;" edge="1" parent="1" source="uRD_3BtpNxTeI_Oz4r6Z-20">
          <mxGeometry relative="1" as="geometry">
            <mxPoint x="880" y="590" as="targetPoint" />
            <Array as="points">
              <mxPoint x="110" y="700" />
              <mxPoint x="880" y="700" />
            </Array>
          </mxGeometry>
        </mxCell>
        <mxCell id="uRD_3BtpNxTeI_Oz4r6Z-20" value="" style="fontColor=#0066CC;verticalAlign=top;verticalLabelPosition=bottom;labelPosition=center;align=center;html=1;outlineConnect=0;fillColor=#CCCCCC;strokeColor=#6881B3;gradientColor=none;gradientDirection=north;strokeWidth=2;shape=mxgraph.networks.user_male;" vertex="1" parent="1">
          <mxGeometry x="90" y="444" width="40" height="100" as="geometry" />
        </mxCell>
        <mxCell id="uRD_3BtpNxTeI_Oz4r6Z-21" value="Usuario" style="text;html=1;align=center;verticalAlign=middle;resizable=0;points=[];autosize=1;strokeColor=none;fillColor=none;" vertex="1" parent="1">
          <mxGeometry x="80" y="414" width="60" height="30" as="geometry" />
        </mxCell>
        <mxCell id="uRD_3BtpNxTeI_Oz4r6Z-22" value="" style="endArrow=none;html=1;rounded=0;exitX=1;exitY=0.5;exitDx=0;exitDy=0;exitPerimeter=0;" edge="1" parent="1" source="uRD_3BtpNxTeI_Oz4r6Z-20">
          <mxGeometry width="50" height="50" relative="1" as="geometry">
            <mxPoint x="150" y="494" as="sourcePoint" />
            <mxPoint x="290" y="494" as="targetPoint" />
          </mxGeometry>
        </mxCell>
        <mxCell id="uRD_3BtpNxTeI_Oz4r6Z-23" value="LOGIN" style="swimlane;fontStyle=0;childLayout=stackLayout;horizontal=1;startSize=30;horizontalStack=0;resizeParent=1;resizeParentMax=0;resizeLast=0;collapsible=1;marginBottom=0;whiteSpace=wrap;html=1;" vertex="1" parent="1">
          <mxGeometry x="490" y="450" width="140" height="90" as="geometry" />
        </mxCell>
        <mxCell id="uRD_3BtpNxTeI_Oz4r6Z-24" value="USUARIO" style="text;strokeColor=none;fillColor=none;align=left;verticalAlign=middle;spacingLeft=4;spacingRight=4;overflow=hidden;points=[[0,0.5],[1,0.5]];portConstraint=eastwest;rotatable=0;whiteSpace=wrap;html=1;" vertex="1" parent="uRD_3BtpNxTeI_Oz4r6Z-23">
          <mxGeometry y="30" width="140" height="30" as="geometry" />
        </mxCell>
        <mxCell id="uRD_3BtpNxTeI_Oz4r6Z-25" value="CONTRASEÑA" style="text;strokeColor=none;fillColor=none;align=left;verticalAlign=middle;spacingLeft=4;spacingRight=4;overflow=hidden;points=[[0,0.5],[1,0.5]];portConstraint=eastwest;rotatable=0;whiteSpace=wrap;html=1;" vertex="1" parent="uRD_3BtpNxTeI_Oz4r6Z-23">
          <mxGeometry y="60" width="140" height="30" as="geometry" />
        </mxCell>
        <mxCell id="uRD_3BtpNxTeI_Oz4r6Z-26" value="" style="fontColor=#0066CC;verticalAlign=top;verticalLabelPosition=bottom;labelPosition=center;align=center;html=1;outlineConnect=0;fillColor=#CCCCCC;strokeColor=#6881B3;gradientColor=none;gradientDirection=north;strokeWidth=2;shape=mxgraph.networks.laptop;" vertex="1" parent="1">
          <mxGeometry x="280" y="468" width="100" height="55" as="geometry" />
        </mxCell>
        <mxCell id="uRD_3BtpNxTeI_Oz4r6Z-27" value="Navegador" style="text;html=1;align=center;verticalAlign=middle;resizable=0;points=[];autosize=1;strokeColor=none;fillColor=none;" vertex="1" parent="1">
          <mxGeometry x="290" y="522" width="80" height="30" as="geometry" />
        </mxCell>
        <mxCell id="uRD_3BtpNxTeI_Oz4r6Z-28" value="USA" style="text;html=1;align=center;verticalAlign=middle;resizable=0;points=[];autosize=1;strokeColor=none;fillColor=none;" vertex="1" parent="1">
          <mxGeometry x="195" y="492" width="50" height="30" as="geometry" />
        </mxCell>
        <mxCell id="uRD_3BtpNxTeI_Oz4r6Z-29" value="" style="endArrow=none;html=1;rounded=0;" edge="1" parent="1">
          <mxGeometry width="50" height="50" relative="1" as="geometry">
            <mxPoint x="370" y="492" as="sourcePoint" />
            <mxPoint x="490" y="492" as="targetPoint" />
          </mxGeometry>
        </mxCell>
        <mxCell id="uRD_3BtpNxTeI_Oz4r6Z-30" value="DASHBOARD" style="text;html=1;align=center;verticalAlign=middle;resizable=0;points=[];autosize=1;strokeColor=none;fillColor=none;" vertex="1" parent="1">
          <mxGeometry x="510" y="420" width="100" height="30" as="geometry" />
        </mxCell>
        <mxCell id="uRD_3BtpNxTeI_Oz4r6Z-31" value="" style="endArrow=none;html=1;rounded=0;entryX=0;entryY=0.5;entryDx=0;entryDy=0;" edge="1" parent="1" target="uRD_3BtpNxTeI_Oz4r6Z-33">
          <mxGeometry width="50" height="50" relative="1" as="geometry">
            <mxPoint x="630" y="489.4100000000001" as="sourcePoint" />
            <mxPoint x="750" y="489.4100000000001" as="targetPoint" />
          </mxGeometry>
        </mxCell>
        <mxCell id="uRD_3BtpNxTeI_Oz4r6Z-32" value="LOGIN CORRECTO" style="text;html=1;align=center;verticalAlign=middle;resizable=0;points=[];autosize=1;strokeColor=none;fillColor=none;" vertex="1" parent="1">
          <mxGeometry x="630" y="492" width="130" height="30" as="geometry" />
        </mxCell>
        <mxCell id="uRD_3BtpNxTeI_Oz4r6Z-33" value="OPEN MEDIA VAULT" style="swimlane;whiteSpace=wrap;html=1;" vertex="1" parent="1">
          <mxGeometry x="770" y="390" width="200" height="200" as="geometry" />
        </mxCell>
        <mxCell id="uRD_3BtpNxTeI_Oz4r6Z-52" value="" style="fontColor=#0066CC;verticalAlign=top;verticalLabelPosition=bottom;labelPosition=center;align=center;html=1;outlineConnect=0;fillColor=#CCCCCC;strokeColor=#6881B3;gradientColor=none;gradientDirection=north;strokeWidth=2;shape=mxgraph.networks.storage;" vertex="1" parent="uRD_3BtpNxTeI_Oz4r6Z-33">
          <mxGeometry x="42.5" y="54" width="115" height="109.5" as="geometry" />
        </mxCell>
        <mxCell id="uRD_3BtpNxTeI_Oz4r6Z-37" value="ACCEDE" style="text;html=1;align=center;verticalAlign=middle;resizable=0;points=[];autosize=1;strokeColor=none;fillColor=none;" vertex="1" parent="1">
          <mxGeometry x="400" y="493" width="70" height="30" as="geometry" />
        </mxCell>
        <mxCell id="uRD_3BtpNxTeI_Oz4r6Z-38" value="ACCEDE" style="text;html=1;align=center;verticalAlign=middle;resizable=0;points=[];autosize=1;strokeColor=none;fillColor=none;" vertex="1" parent="1">
          <mxGeometry x="830" y="360" width="70" height="30" as="geometry" />
        </mxCell>
        <mxCell id="uRD_3BtpNxTeI_Oz4r6Z-40" value="" style="endArrow=none;html=1;rounded=0;entryX=0.48;entryY=1.135;entryDx=0;entryDy=0;entryPerimeter=0;" edge="1" parent="1" target="uRD_3BtpNxTeI_Oz4r6Z-25">
          <mxGeometry width="50" height="50" relative="1" as="geometry">
            <mxPoint x="557" y="624" as="sourcePoint" />
            <mxPoint x="510" y="604" as="targetPoint" />
          </mxGeometry>
        </mxCell>
        <mxCell id="uRD_3BtpNxTeI_Oz4r6Z-41" value="LOGIN INCORRECTO" style="text;html=1;align=center;verticalAlign=middle;resizable=0;points=[];autosize=1;strokeColor=none;fillColor=none;" vertex="1" parent="1">
          <mxGeometry x="555" y="570.5" width="140" height="30" as="geometry" />
        </mxCell>
        <mxCell id="uRD_3BtpNxTeI_Oz4r6Z-42" value="ACCESO DENEGADO" style="rounded=0;whiteSpace=wrap;html=1;" vertex="1" parent="1">
          <mxGeometry x="500" y="624" width="120" height="60" as="geometry" />
        </mxCell>
        <mxCell id="uRD_3BtpNxTeI_Oz4r6Z-50" value="IP:85" style="text;html=1;align=center;verticalAlign=middle;resizable=0;points=[];autosize=1;strokeColor=none;fillColor=none;" vertex="1" parent="1">
          <mxGeometry x="675" y="462" width="50" height="30" as="geometry" />
        </mxCell>
        <mxCell id="uRD_3BtpNxTeI_Oz4r6Z-56" value="SUBE" style="text;html=1;align=center;verticalAlign=middle;resizable=0;points=[];autosize=1;strokeColor=none;fillColor=none;" vertex="1" parent="1">
          <mxGeometry x="880" y="600.5" width="60" height="30" as="geometry" />
        </mxCell>
        <mxCell id="uRD_3BtpNxTeI_Oz4r6Z-57" value="DESCARGA" style="text;html=1;align=center;verticalAlign=middle;resizable=0;points=[];autosize=1;strokeColor=none;fillColor=none;" vertex="1" parent="1">
          <mxGeometry x="20" y="560" width="90" height="30" as="geometry" />
        </mxCell>
      </root>
    </mxGraphModel>
  </diagram>
</mxfile>
